<svg height="200px" width="200px" version="1.1" id="Layer_1" xmlns="http://www.w3.org/2000/svg" xmlns:xlink="http://www.w3.org/1999/xlink" viewBox="0 0 511.988 511.988" xml:space="preserve" fill="#000000"><g id="SVGRepo_bgCarrier" stroke-width="0"></g><g id="SVGRepo_tracerCarrier" stroke-linecap="round" stroke-linejoin="round"></g><g id="SVGRepo_iconCarrier"> <g> <path style="fill:#A0D468;" d="M213.338,170.656c0,29.452-23.89,53.327-53.342,53.327c-29.453,0-53.327-23.875-53.327-53.327 s23.875-53.327,53.327-53.327C189.448,117.329,213.338,141.204,213.338,170.656z"></path> <path style="fill:#A0D468;" d="M405.333,170.656c0,29.452-23.89,53.327-53.342,53.327c-29.453,0-53.327-23.875-53.327-53.327 s23.874-53.327,53.327-53.327C381.443,117.329,405.333,141.204,405.333,170.656z"></path> </g> <g> <path style="fill:#FC6E51;" d="M234.666,255.982c0,58.913-47.765,106.661-106.669,106.661S21.343,314.895,21.343,255.982 c0-58.905,47.749-106.653,106.654-106.653S234.666,197.077,234.666,255.982z"></path> <path style="fill:#FC6E51;" d="M490.659,255.982c0,58.913-47.764,106.661-106.67,106.661c-58.904,0-106.652-47.748-106.652-106.661 c0-58.905,47.748-106.653,106.652-106.653C442.895,149.329,490.659,197.077,490.659,255.982z"></path> </g> <path style="fill:#ED5564;" d="M362.663,213.327c0,58.912-47.766,106.661-106.669,106.661c-58.905,0-106.654-47.749-106.654-106.661 c0-58.92,47.749-106.669,106.654-106.669C314.897,106.658,362.663,154.407,362.663,213.327z"></path> <g> <path style="fill:#FFCE54;" d="M511.003,291.302c3.531,11.25-2.734,23.219-13.969,26.749l-20.359,6.375 c-11.25,3.5-23.218-2.75-26.733-13.999l-6.39-20.344c-3.516-11.25,2.749-23.211,13.983-26.741l20.358-6.375 c11.25-3.516,23.219,2.734,26.734,13.983L511.003,291.302z"></path> <path style="fill:#FFCE54;" d="M0.984,291.302c-3.515,11.25,2.734,23.219,13.984,26.749l20.343,6.375 c11.25,3.5,23.218-2.75,26.749-13.999l6.375-20.344c3.516-11.25-2.734-23.211-13.984-26.741l-20.359-6.375 c-11.234-3.516-23.203,2.734-26.734,13.983L0.984,291.302z"></path> </g> <path style="fill:#F4BE8E;" d="M255.994,149.329C114.622,149.329,0,263.935,0,405.33h511.987 C511.987,263.935,397.38,149.329,255.994,149.329z"></path> <g> <path style="fill:#EAAD7A;" d="M0.89,383.987C0.296,391.018,0,398.143,0,405.33h511.987c0-7.187-0.297-14.312-0.875-21.343H0.89z"></path> <path style="fill:#EAAD7A;" d="M184.464,216.452c-4.171,4.156-4.171,10.906,0,15.078c4.156,4.172,10.906,4.172,15.078,0 c4.171-4.172,4.171-10.922,0-15.078C195.37,212.28,188.62,212.28,184.464,216.452z"></path> <path style="fill:#EAAD7A;" d="M248.462,280.458c-4.172,4.156-4.172,10.906,0,15.062c4.156,4.188,10.906,4.188,15.078,0 c4.172-4.156,4.172-10.906,0-15.062C259.368,276.27,252.619,276.27,248.462,280.458z"></path> <path style="fill:#EAAD7A;" d="M312.46,216.452c-4.172,4.156-4.172,10.906,0,15.078c4.156,4.172,10.906,4.172,15.078,0 s4.172-10.922,0-15.078C323.366,212.28,316.616,212.28,312.46,216.452z"></path> <path style="fill:#EAAD7A;" d="M120.45,280.458c-4.156,4.156-4.156,10.906,0,15.062c4.171,4.188,10.921,4.188,15.093,0 c4.156-4.156,4.156-10.906,0-15.062C131.371,276.27,124.621,276.27,120.45,280.458z"></path> <path style="fill:#EAAD7A;" d="M184.448,344.457c-4.156,4.155-4.156,10.905,0,15.062c4.172,4.188,10.922,4.188,15.094,0 c4.156-4.156,4.156-10.906,0-15.062C195.37,340.269,188.62,340.269,184.448,344.457z"></path> <path style="fill:#EAAD7A;" d="M312.444,344.457c-4.156,4.155-4.156,10.905,0,15.062c4.172,4.188,10.922,4.188,15.094,0 c4.156-4.156,4.156-10.906,0-15.062C323.366,340.269,316.616,340.269,312.444,344.457z"></path> <path style="fill:#EAAD7A;" d="M376.443,280.458c-4.156,4.156-4.156,10.906,0,15.062c4.172,4.188,10.921,4.188,15.093,0 c4.156-4.156,4.156-10.906,0-15.062C387.364,276.27,380.615,276.27,376.443,280.458z"></path> <path style="fill:#EAAD7A;" d="M56.452,344.238c-4.156,4.155-4.156,10.905,0,15.093c4.171,4.156,10.921,4.156,15.093,0 c4.156-4.188,4.156-10.938,0-15.093C67.373,340.082,60.623,340.082,56.452,344.238z"></path> <path style="fill:#EAAD7A;" d="M455.535,344.457c-4.172-4.188-10.922-4.188-15.093,0c-4.156,4.155-4.156,10.905,0,15.062 c4.171,4.188,10.921,4.188,15.093,0C459.691,355.362,459.691,348.612,455.535,344.457z"></path> </g> </g></svg>